<svg width="14" height="18" viewBox="0 0 14 18" fill="none" xmlns="http://www.w3.org/2000/svg">
<path d="M12.8337 7.33333H13.8337C13.8337 7.06812 13.7283 6.81376 13.5408 6.62623L12.8337 7.33333ZM7.00033 1.5L7.70743 0.792893C7.5199 0.605357 7.26554 0.5 7.00033 0.5V1.5ZM11.167 15.5H2.83366V17.5H11.167V15.5ZM2.16699 14.8333V3.16667H0.166992V14.8333H2.16699ZM11.8337 7.33333V14.8333H13.8337V7.33333H11.8337ZM2.83366 2.5H7.00033V0.5H2.83366V2.5ZM13.5408 6.62623L7.70743 0.792893L6.29322 2.20711L12.1266 8.04044L13.5408 6.62623ZM6.00033 1.5V6.91667H8.00033V1.5H6.00033ZM7.41699 8.33333H12.8337V6.33333H7.41699V8.33333ZM2.83366 15.5C2.46547 15.5 2.16699 15.2015 2.16699 14.8333H0.166992C0.166992 16.3061 1.3609 17.5 2.83366 17.5V15.5ZM11.167 17.5C12.6398 17.5 13.8337 16.3061 13.8337 14.8333H11.8337C11.8337 15.2015 11.5352 15.5 11.167 15.5V17.5ZM6.00033 6.91667C6.00033 7.69907 6.63459 8.33333 7.41699 8.33333V6.33333C7.73916 6.33333 8.00033 6.5945 8.00033 6.91667H6.00033ZM2.16699 3.16667C2.16699 2.79848 2.46547 2.5 2.83366 2.5V0.5C1.3609 0.5 0.166992 1.69391 0.166992 3.16667H2.16699Z" fill="#2F3031"/>
</svg>
